<svg width="20" height="20" viewBox="0 0 20 20" fill="none" xmlns="http://www.w3.org/2000/svg">
<path d="M14.8716 15.7296C14.8716 15.3404 14.5891 15.0453 14.1999 15.0453H10.0627C10.2322 15.0265 10.3955 14.9512 10.521 14.8193L14.6519 10.6822C14.8025 10.5315 14.8716 10.362 14.8716 10.1737C14.8716 9.78444 14.5828 9.49566 14.1999 9.49566C14.0052 9.49566 13.8295 9.57727 13.7039 9.70283L12.2725 11.1154L10.6466 12.9359L10.6968 11.5799V3.82671C10.6968 3.40609 10.4143 3.11731 9.99995 3.11731C9.58561 3.11731 9.3031 3.40609 9.3031 3.82671V11.5799L9.35332 12.9297L7.72735 11.1154L6.29599 9.70283C6.17043 9.57727 5.99465 9.49566 5.79375 9.49566C5.4108 9.49566 5.1283 9.78444 5.1283 10.1737C5.1283 10.362 5.19735 10.5315 5.34802 10.6822L9.47888 14.8193C9.60444 14.9512 9.76767 15.0265 9.93717 15.0453H5.81259C5.41708 15.0453 5.1283 15.3404 5.1283 15.7296C5.1283 16.1188 5.41708 16.4139 5.81259 16.4139H14.1999C14.5891 16.4139 14.8716 16.1188 14.8716 15.7296Z" fill="white"/>
</svg>
