<svg width="20" height="20" viewBox="0 0 20 20" fill="none" xmlns="http://www.w3.org/2000/svg">
<rect width="20" height="20" rx="5" transform="matrix(-1 0 0 1 20 0)" fill="#323445"/>
<path d="M14.0367 9.75307C14.0367 9.9728 13.9551 10.1611 13.7793 10.3244L8.89508 15.1081C8.75697 15.2462 8.58119 15.3216 8.37401 15.3216C7.95967 15.3216 7.62695 14.9951 7.62695 14.5745C7.62695 14.3673 7.71484 14.1853 7.85295 14.0409L12.2538 9.75307L7.85295 5.46526C7.71484 5.32087 7.62695 5.13253 7.62695 4.93164C7.62695 4.51102 7.95967 4.18457 8.37401 4.18457C8.58119 4.18457 8.75697 4.25991 8.89508 4.39802L13.7793 9.1755C13.9551 9.34501 14.0367 9.53334 14.0367 9.75307Z" fill="white"/>
</svg>
