<svg width="20" height="20" viewBox="0 0 20 20" fill="none" xmlns="http://www.w3.org/2000/svg">
<path d="M5.96331 9.75307C5.96331 9.9728 6.04492 10.1611 6.2207 10.3244L11.1049 15.1081C11.243 15.2462 11.4188 15.3216 11.626 15.3216C12.0403 15.3216 12.373 14.9951 12.373 14.5745C12.373 14.3673 12.2852 14.1853 12.147 14.0409L7.74623 9.75307L12.147 5.46526C12.2852 5.32087 12.373 5.13253 12.373 4.93164C12.373 4.51102 12.0403 4.18457 11.626 4.18457C11.4188 4.18457 11.243 4.25991 11.1049 4.39802L6.2207 9.1755C6.04492 9.34501 5.96331 9.53334 5.96331 9.75307Z" fill="white"/>
<rect x="0.5" y="0.5" width="19" height="19" rx="4.5" stroke="#62626F"/>
</svg>
