<svg width="21" height="21" viewBox="0 0 21 21" fill="none" xmlns="http://www.w3.org/2000/svg">
<path d="M5.25 3.60938H15.75V18.0469H5.25V3.60938Z" fill="#E6E7E8"/>
<path d="M3.28125 3.60938C1.10677 3.60938 0 5.22539 0 7.21875V14.4375C0 16.4309 1.10677 18.0469 3.28125 18.0469H5.25V3.60938H3.28125ZM17.7188 3.60938H15.75V18.0469H17.7188C19.8932 18.0469 21 16.4309 21 14.4375V7.21875C21 5.22539 19.8932 3.60938 17.7188 3.60938Z" fill="#EC1C24"/>
<path fill-rule="evenodd" clip-rule="evenodd" d="M14.5228 10.7104C14.3728 10.6424 14.3476 10.5945 14.3922 10.4288C14.5034 10.0144 14.618 9.60162 14.7305 9.18786C14.74 9.15406 14.7486 9.11928 14.7613 9.06973C14.6222 9.09762 14.4923 9.12256 14.3623 9.15078C14.0995 9.20656 13.8383 9.26332 13.5762 9.31878C13.4049 9.35454 13.3265 9.30664 13.2779 9.13732C13.2323 8.9772 13.1873 8.81675 13.1142 8.63365C13.0974 8.66121 13.0853 8.69304 13.064 8.71634C12.7637 9.05529 12.4618 9.39326 12.1596 9.73221C12.0661 9.83525 11.9621 9.8802 11.8886 9.83951C11.7807 9.77848 11.7846 9.67053 11.8023 9.56979C11.8821 9.12978 11.9647 8.69075 12.0468 8.25073C12.1068 7.93146 12.1669 7.61384 12.2286 7.28112C12.1974 7.29293 12.1764 7.29884 12.1577 7.30803C11.9877 7.39596 11.8197 7.48554 11.6494 7.57151C11.4407 7.67618 11.3357 7.64173 11.2268 7.43993C10.9961 7.01239 10.7674 6.58418 10.5374 6.15631C10.5256 6.13531 10.5177 6.11431 10.4997 6.0874L10.4619 6.15631C10.2326 6.58418 10.0035 7.01239 9.77319 7.43993C9.66393 7.64173 9.5586 7.67651 9.34991 7.57151C9.17961 7.48554 9.01161 7.39596 8.84164 7.30803C8.82294 7.29884 8.80194 7.29293 8.77077 7.28112C8.83246 7.61384 8.8925 7.93146 8.95255 8.25073C9.03458 8.68943 9.1176 9.12847 9.19668 9.56979C9.21505 9.67086 9.21866 9.77881 9.11071 9.83951C9.03688 9.8802 8.93319 9.83525 8.84 9.73221C8.53747 9.39326 8.2356 9.05529 7.93536 8.71634C7.91404 8.69304 7.90157 8.66121 7.88516 8.63365C7.81199 8.81707 7.76704 8.9772 7.72143 9.13732C7.67286 9.30664 7.59379 9.35454 7.42316 9.31878C7.16099 9.26332 6.89947 9.20656 6.63697 9.15078C6.50703 9.12256 6.3771 9.09762 6.23797 9.06973C6.25077 9.11928 6.25897 9.15439 6.26882 9.18786C6.38136 9.60162 6.49588 10.0147 6.60711 10.4288C6.65174 10.5949 6.62647 10.6424 6.47652 10.7104C6.33772 10.7734 6.19925 10.84 6.05258 10.9085C6.07883 10.9322 6.0936 10.9463 6.11 10.9597C6.45913 11.2439 6.80825 11.5271 7.15804 11.8112C7.49633 12.0862 7.83332 12.3608 8.17194 12.6348C8.29039 12.7303 8.32944 12.8464 8.28055 12.9915C8.25299 13.0768 8.22838 13.1621 8.20279 13.2477C8.17194 13.3485 8.14175 13.4499 8.10763 13.565C8.4433 13.5175 8.76027 13.4732 9.07954 13.4289C9.45393 13.3774 9.82799 13.3245 10.2034 13.2773C10.332 13.2605 10.4275 13.3587 10.4222 13.4863C10.394 14.1632 10.3287 14.9274 10.3241 15.5686H10.6752C10.6706 14.9274 10.6056 14.1635 10.5774 13.4863C10.5715 13.3587 10.6673 13.2605 10.796 13.2773C11.1713 13.3245 11.5454 13.3774 11.9198 13.4289C12.2391 13.4732 12.556 13.5178 12.8917 13.565C12.8576 13.4499 12.8274 13.3485 12.7965 13.2477C12.7709 13.1618 12.7463 13.0768 12.7188 12.9915C12.6699 12.8464 12.7089 12.7303 12.8274 12.6348C13.1663 12.3608 13.503 12.0862 13.8413 11.8112C14.1911 11.5274 14.5402 11.2439 14.8893 10.9597C14.9057 10.9463 14.9205 10.9322 14.9467 10.9085C14.7997 10.8396 14.6619 10.7734 14.5228 10.7104" fill="#EC1C24"/>
</svg>
