<svg width="16" height="16" viewBox="0 0 16 16" fill="none" xmlns="http://www.w3.org/2000/svg">
<path d="M2.37533 2.70865C2.28693 2.70865 2.20214 2.67354 2.13963 2.61102C2.07712 2.54851 2.042 2.46373 2.042 2.37532C2.042 2.28692 2.07712 2.20213 2.13963 2.13962C2.20214 2.07711 2.28693 2.04199 2.37533 2.04199L13.6247 2.04132C13.7131 2.04132 13.7979 2.07644 13.8604 2.13895C13.9229 2.20146 13.958 2.28625 13.958 2.37465C13.958 2.46306 13.9229 2.54784 13.8604 2.61036C13.7979 2.67287 13.7131 2.70799 13.6247 2.70799L2.37533 2.70865V2.70865ZM2.37533 8.33399C2.28693 8.33399 2.20214 8.29887 2.13963 8.23636C2.07712 8.17384 2.042 8.08906 2.042 8.00065C2.042 7.91225 2.07712 7.82746 2.13963 7.76495C2.20214 7.70244 2.28693 7.66732 2.37533 7.66732L13.6247 7.66599C13.7131 7.66599 13.7979 7.70111 13.8604 7.76362C13.9229 7.82613 13.958 7.91092 13.958 7.99932C13.958 8.08773 13.9229 8.17251 13.8604 8.23502C13.7979 8.29754 13.7131 8.33265 13.6247 8.33265L2.37533 8.33399V8.33399ZM2.37533 13.9593C2.28693 13.9593 2.20214 13.9242 2.13963 13.8617C2.07712 13.7992 2.042 13.7144 2.042 13.626C2.042 13.5376 2.07712 13.4528 2.13963 13.3903C2.20214 13.3278 2.28693 13.2927 2.37533 13.2927L13.6247 13.2913C13.7131 13.2913 13.7979 13.3264 13.8604 13.389C13.9229 13.4515 13.958 13.5362 13.958 13.6247C13.958 13.7131 13.9229 13.7978 13.8604 13.8604C13.7979 13.9229 13.7131 13.958 13.6247 13.958L2.37533 13.9593V13.9593Z" fill="white"/>
</svg>
