<svg width="22" height="22" viewBox="0 0 22 22" fill="none" xmlns="http://www.w3.org/2000/svg">
<circle cx="11" cy="11" r="10.5" stroke="white"/>
<path d="M5.08876 6.16665C5.08876 5.57081 5.57084 5.08331 6.16667 5.08331H14.8333C15.4292 5.08331 15.9167 5.57081 15.9167 6.16665V12.6666C15.9167 13.2625 15.4292 13.75 14.8333 13.75H7.25001L5.08334 15.9166L5.08876 6.16665ZM7.79167 11.5833H13.2083C13.5063 11.5833 13.75 11.3396 13.75 11.0416C13.75 10.7437 13.5063 10.5 13.2083 10.5H7.79167C7.49376 10.5 7.25001 10.7437 7.25001 11.0416C7.25001 11.3396 7.49376 11.5833 7.79167 11.5833ZM7.79167 9.95831H13.2083C13.5063 9.95831 13.75 9.71456 13.75 9.41665C13.75 9.11873 13.5063 8.87498 13.2083 8.87498H7.79167C7.49376 8.87498 7.25001 9.11873 7.25001 9.41665C7.25001 9.71456 7.49376 9.95831 7.79167 9.95831ZM7.79167 8.33331H13.2083C13.5063 8.33331 13.75 8.08956 13.75 7.79165C13.75 7.49373 13.5063 7.24998 13.2083 7.24998H7.79167C7.49376 7.24998 7.25001 7.49373 7.25001 7.79165C7.25001 8.08956 7.49376 8.33331 7.79167 8.33331Z" fill="white"/>
</svg>
