<svg width="20" height="20" viewBox="0 0 20 20" fill="none" xmlns="http://www.w3.org/2000/svg">
<path d="M14.8717 15.7296C14.8717 15.3404 14.5892 15.0453 14.1999 15.0453H10.0628C10.2323 15.0265 10.3955 14.9512 10.5211 14.8193L14.6519 10.6822C14.8026 10.5315 14.8717 10.362 14.8717 10.1737C14.8717 9.78444 14.5829 9.49566 14.1999 9.49566C14.0053 9.49566 13.8295 9.57727 13.704 9.70283L12.2726 11.1154L10.6466 12.9359L10.6969 11.5799V3.82671C10.6969 3.40609 10.4144 3.11731 10 3.11731C9.58567 3.11731 9.30316 3.40609 9.30316 3.82671V11.5799L9.35338 12.9297L7.72741 11.1154L6.29605 9.70283C6.17049 9.57727 5.99471 9.49566 5.79381 9.49566C5.41086 9.49566 5.12836 9.78444 5.12836 10.1737C5.12836 10.362 5.19741 10.5315 5.34808 10.6822L9.47894 14.8193C9.6045 14.9512 9.76773 15.0265 9.93723 15.0453H5.81265C5.41714 15.0453 5.12836 15.3404 5.12836 15.7296C5.12836 16.1188 5.41714 16.4139 5.81265 16.4139H14.1999C14.5892 16.4139 14.8717 16.1188 14.8717 15.7296Z" fill="white"/>
</svg>