<svg width="12" height="7" viewBox="0 0 12 7" fill="none" xmlns="http://www.w3.org/2000/svg">
<path d="M6 6.91319C6.23675 6.90643 6.45321 6.81849 6.62909 6.62909L11.77 1.3664C11.9188 1.21759 12 1.02818 12 0.804961C12 0.358512 11.6483 0 11.2018 0C10.9853 0 10.7756 0.0879369 10.6201 0.243517L6.00676 4.98534L1.37993 0.243517C1.22435 0.0947012 1.02142 0 0.798196 0C0.351747 0 0 0.358512 0 0.804961C0 1.02818 0.0811725 1.21759 0.229989 1.3664L5.37768 6.62909C5.56032 6.81849 5.76325 6.91319 6 6.91319Z" fill="white"/>
</svg>
