<svg width="24" height="25" viewBox="0 0 24 25" fill="none" xmlns="http://www.w3.org/2000/svg">
<path d="M19.4807 6.58249L20.0457 5.98734C20.332 5.686 20.3546 5.27166 20.0683 4.98539L19.8725 4.78198C19.6163 4.52585 19.1869 4.56351 18.9082 4.84225L18.3206 5.4148L19.4807 6.58249ZM10.5611 14.5981L12.1055 13.9502L18.9308 7.1249L17.7706 5.97227L10.9453 12.8051L10.2673 14.2968C10.1919 14.47 10.3878 14.6659 10.5611 14.5981ZM7.69836 19.6531H16.4749C17.9213 19.6531 18.7726 18.8093 18.7726 17.1972V9.24181L17.2659 10.741V17.0616C17.2659 17.7848 16.8817 18.1464 16.3769 18.1464H7.7963C7.10322 18.1464 6.72655 17.7848 6.72655 17.0616V8.69186C6.72655 7.96865 7.10322 7.60704 7.7963 7.60704H14.1922L15.6914 6.10034H7.69836C6.07113 6.10034 5.21985 6.94409 5.21985 8.55626V17.1972C5.21985 18.8093 6.07113 19.6531 7.69836 19.6531Z" fill="white"/>
</svg>