<svg width="38" height="37" viewBox="0 0 38 37" fill="none" xmlns="http://www.w3.org/2000/svg">
<rect width="36" height="36" rx="10" fill="#636270"/>
<g clip-path="url(#clip0_12_4832)">
<rect x="4" y="5" width="28" height="28" fill="white"/>
<path d="M4 5V33H32V5H4ZM13.1533 10.3252C14.8226 10.3252 16.1765 11.6774 16.1765 13.3467C16.1765 15.016 14.8226 16.3699 13.1533 16.3699C11.484 16.3699 10.1301 15.016 10.1301 13.3467C10.1301 11.6774 11.484 10.3252 13.1533 10.3252V10.3252ZM22.5749 10.3252C24.2443 10.3252 25.5964 11.6774 25.5964 13.3467C25.5964 15.016 24.2443 16.3699 22.5749 16.3699C20.9056 16.3699 19.5518 15.016 19.5518 13.3467C19.5518 11.6774 20.9056 10.3252 22.5749 10.3252V10.3252ZM8.27075 19.8425H27.7293C27.7293 25.2158 23.3733 29.5735 18 29.5735C12.6267 29.5735 8.27075 25.2159 8.27075 19.8425V19.8425Z" fill="#636270"/>
</g>
<circle cx="32" cy="31" r="5" fill="#00FF84" stroke="#181B2A" stroke-width="2"/>
<defs>
<clipPath id="clip0_12_4832">
<rect width="28" height="28" fill="white" transform="translate(4 5)"/>
</clipPath>
</defs>
</svg>
