<svg width="79" height="79" viewBox="0 0 79 79" fill="none" xmlns="http://www.w3.org/2000/svg">
<rect width="79" height="79" rx="10" fill="#636270"/>
<g clip-path="url(#clip0_12_4542)">
<rect x="8.77778" y="10.9722" width="61.4444" height="61.4444" fill="white"/>
<path d="M8.77778 10.9722V72.4166H70.2222V10.9722H8.77778ZM28.8642 22.658C32.5274 22.658 35.4984 25.6253 35.4984 29.2885C35.4984 32.9517 32.5274 35.9227 28.8642 35.9227C25.201 35.9227 22.23 32.9517 22.23 29.2885C22.23 25.6253 25.201 22.658 28.8642 22.658V22.658ZM49.5395 22.658C53.2027 22.658 56.1699 25.6253 56.1699 29.2885C56.1699 32.9517 53.2027 35.9227 49.5395 35.9227C45.8762 35.9227 42.9053 32.9517 42.9053 29.2885C42.9053 25.6253 45.8762 22.658 49.5395 22.658V22.658ZM18.1497 43.5433H60.8503C60.8503 55.3347 51.2915 64.8972 39.5 64.8972C27.7085 64.8972 18.1497 55.3348 18.1497 43.5433V43.5433Z" fill="#636270"/>
</g>
<defs>
<clipPath id="clip0_12_4542">
<rect width="61.4444" height="61.4444" fill="white" transform="translate(8.77778 10.9722)"/>
</clipPath>
</defs>
</svg>
