<svg width="20" height="20" viewBox="0 0 20 20" fill="none" xmlns="http://www.w3.org/2000/svg">
<circle cx="9.5" cy="8.5" r="2" stroke="white"/>
<mask id="path-2-inside-1_12_2053" fill="white">
<path d="M6 14.5C6 13.5717 6.36875 12.6815 7.02513 12.0251C7.6815 11.3687 8.57174 11 9.5 11C10.4283 11 11.3185 11.3687 11.9749 12.0251C12.6313 12.6815 13 13.5717 13 14.5L9.5 14.5L6 14.5Z"/>
</mask>
<path d="M6 14.5C6 13.5717 6.36875 12.6815 7.02513 12.0251C7.6815 11.3687 8.57174 11 9.5 11C10.4283 11 11.3185 11.3687 11.9749 12.0251C12.6313 12.6815 13 13.5717 13 14.5L9.5 14.5L6 14.5Z" stroke="white" stroke-width="2" mask="url(#path-2-inside-1_12_2053)"/>
</svg>
